<?xml version="1.0" encoding="utf-8"?>
<!-- Uploaded to: SVG Repo, www.svgrepo.com, Generator: SVG Repo Mixer Tools -->
<svg width="800px" height="800px" viewBox="0 0 21 21" xmlns="http://www.w3.org/2000/svg">
<g fill="none" fill-rule="evenodd" stroke="#000000" stroke-linecap="round" stroke-linejoin="round" transform="translate(3 3)">
<path d="m2.5.5h10c1.1045695 0 2 .8954305 2 2v10c0 1.1045695-.8954305 2-2 2h-10c-1.1045695 0-2-.8954305-2-2v-10c0-1.1045695.8954305-2 2-2z"/>
<path d="m2.5 2.5h10c1.1045695 0 2 .8954305 2 2v-2c0-1-.8954305-2-2-2h-10c-1.1045695 0-2 1-2 2v2c0-1.1045695.8954305-2 2-2z" fill="#000000"/>
<path d="m4.498 7.5h1"/>
<path d="m4.498 5.5h3.997"/>
<path d="m4.498 9.5h5.997"/>
<path d="m4.498 11.5h3.997"/>
</g>
</svg>