<svg version="1.1" id="Capa_1" xmlns="http://www.w3.org/2000/svg" xmlns:xlink="http://www.w3.org/1999/xlink" x="0px" y="0px"
	 viewBox="0 0 16 16" style="enable-background:new 0 0 16 16;" xml:space="preserve">
<style type="text/css">
	.st0{fill: currentColor;}
</style>
<g>
	<path class="st0" d="M6.12,3.22c0.32,0.27,0.63,0.53,0.95,0.8C5.83,4.47,4.6,4.92,3.35,5.38c0.23-1.31,0.45-2.59,0.68-3.9
		C4.16,1.59,4.28,1.69,4.4,1.79c0.2,0.16,0.39,0.32,0.58,0.48c0.05,0.05,0.09,0.04,0.15,0c2.45-1.68,5.72-1.61,8.08,0.17
		c2.62,1.97,3.52,5.47,2.14,8.44c-1.8,3.89-6.53,5.19-10.04,2.95c-0.81-0.52-1.48-1.18-2.02-1.97c-0.15-0.22-0.2-0.46-0.08-0.71
		c0.11-0.23,0.3-0.36,0.55-0.37c0.26-0.02,0.46,0.09,0.6,0.31c0.85,1.25,2,2.06,3.48,2.38c1.71,0.36,3.29,0.02,4.67-1.07
		c2.32-1.82,2.83-5.05,1.21-7.52C12.1,2.4,8.73,1.63,6.2,3.15C6.18,3.18,6.16,3.19,6.12,3.22z"/>
	<g id="Grupo_251862" transform="translate(-3296.512 1148.278)">
		<path id="Trazado_491862" class="st0" d="M3299.6-1137.48c-0.02-1.46-1.23-2.62-2.69-2.6c1.46-0.02,2.62-1.23,2.6-2.68l0,0
			c0.02,1.46,1.23,2.62,2.69,2.6C3300.73-1140.14,3299.57-1138.94,3299.6-1137.48"/>
		<path id="Trazado_491863" class="st0" d="M3297.6-1140.93c-0.01-0.59-0.5-1.06-1.09-1.05c0.59-0.01,1.06-0.5,1.05-1.09
			c0.01,0.59,0.5,1.06,1.09,1.05C3298.06-1142.01,3297.59-1141.52,3297.6-1140.93"/>
		<path id="Trazado_491863_00000076603396284579859970000018180941631350733197_" class="st0" d="M3297.99-1137.79
			c-0.01-0.38-0.32-0.67-0.69-0.67c0.38-0.01,0.67-0.32,0.67-0.69c0.01,0.38,0.32,0.67,0.69,0.67
			C3298.28-1138.47,3297.98-1138.16,3297.99-1137.79"/>
	</g>
</g>
</svg>
